<mxfile host="app.diagrams.net" agent="Mozilla/5.0 (X11; Linux x86_64) AppleWebKit/537.36 (KHTML, like Gecko) Chrome/129.0.0.0 Safari/537.36" version="24.7.17">
  <diagram name="Página-1" id="1iie6qSilTKwe_YNHS6K">
    <mxGraphModel dx="880" dy="1616" grid="1" gridSize="10" guides="1" tooltips="1" connect="1" arrows="1" fold="1" page="1" pageScale="1" pageWidth="827" pageHeight="1169" math="0" shadow="0">
      <root>
        <mxCell id="0" />
        <mxCell id="1" parent="0" />
        <mxCell id="6_3hZJ3YQ82lTNYOdCba-1" value="usuário" style="shape=umlActor;verticalLabelPosition=bottom;verticalAlign=top;html=1;outlineConnect=0;" parent="1" vertex="1">
          <mxGeometry x="400" y="210" width="30" height="60" as="geometry" />
        </mxCell>
        <mxCell id="6_3hZJ3YQ82lTNYOdCba-2" value="cadastrar" style="ellipse;whiteSpace=wrap;html=1;" parent="1" vertex="1">
          <mxGeometry x="560" y="-10" width="92.5" height="65" as="geometry" />
        </mxCell>
        <mxCell id="IK2AJUG-EuHcYFsYNcpP-2" value="autenticar" style="ellipse;whiteSpace=wrap;html=1;" vertex="1" parent="1">
          <mxGeometry x="560" y="80" width="97.5" height="60" as="geometry" />
        </mxCell>
        <mxCell id="IK2AJUG-EuHcYFsYNcpP-3" value="registrar planejamento de treino" style="ellipse;whiteSpace=wrap;html=1;" vertex="1" parent="1">
          <mxGeometry x="560" y="250" width="102.5" height="60" as="geometry" />
        </mxCell>
        <mxCell id="IK2AJUG-EuHcYFsYNcpP-4" value="registrar treino" style="ellipse;whiteSpace=wrap;html=1;" vertex="1" parent="1">
          <mxGeometry x="560" y="340" width="95" height="60" as="geometry" />
        </mxCell>
        <mxCell id="IK2AJUG-EuHcYFsYNcpP-5" value="definir metas" style="ellipse;whiteSpace=wrap;html=1;" vertex="1" parent="1">
          <mxGeometry x="560" y="170" width="96.25" height="60" as="geometry" />
        </mxCell>
        <mxCell id="IK2AJUG-EuHcYFsYNcpP-7" value="" style="endArrow=none;html=1;rounded=0;entryX=0;entryY=0.5;entryDx=0;entryDy=0;" edge="1" parent="1" source="6_3hZJ3YQ82lTNYOdCba-1" target="6_3hZJ3YQ82lTNYOdCba-2">
          <mxGeometry width="50" height="50" relative="1" as="geometry">
            <mxPoint x="472.5" y="270" as="sourcePoint" />
            <mxPoint x="522.5" y="220" as="targetPoint" />
          </mxGeometry>
        </mxCell>
        <mxCell id="IK2AJUG-EuHcYFsYNcpP-11" value="" style="endArrow=none;html=1;rounded=0;entryX=0;entryY=0.5;entryDx=0;entryDy=0;" edge="1" parent="1" source="6_3hZJ3YQ82lTNYOdCba-1" target="IK2AJUG-EuHcYFsYNcpP-5">
          <mxGeometry width="50" height="50" relative="1" as="geometry">
            <mxPoint x="440" y="140" as="sourcePoint" />
            <mxPoint x="490" y="90" as="targetPoint" />
          </mxGeometry>
        </mxCell>
        <mxCell id="IK2AJUG-EuHcYFsYNcpP-12" value="" style="endArrow=none;html=1;rounded=0;entryX=0;entryY=0.5;entryDx=0;entryDy=0;" edge="1" parent="1" source="6_3hZJ3YQ82lTNYOdCba-1" target="IK2AJUG-EuHcYFsYNcpP-2">
          <mxGeometry width="50" height="50" relative="1" as="geometry">
            <mxPoint x="420" y="390" as="sourcePoint" />
            <mxPoint x="470" y="340" as="targetPoint" />
          </mxGeometry>
        </mxCell>
        <mxCell id="IK2AJUG-EuHcYFsYNcpP-13" value="" style="endArrow=none;html=1;rounded=0;entryX=0;entryY=0.5;entryDx=0;entryDy=0;" edge="1" parent="1" source="6_3hZJ3YQ82lTNYOdCba-1" target="IK2AJUG-EuHcYFsYNcpP-4">
          <mxGeometry width="50" height="50" relative="1" as="geometry">
            <mxPoint x="420" y="410" as="sourcePoint" />
            <mxPoint x="470" y="360" as="targetPoint" />
          </mxGeometry>
        </mxCell>
        <mxCell id="IK2AJUG-EuHcYFsYNcpP-15" value="" style="endArrow=none;html=1;rounded=0;entryX=0;entryY=0.5;entryDx=0;entryDy=0;" edge="1" parent="1" source="6_3hZJ3YQ82lTNYOdCba-1" target="IK2AJUG-EuHcYFsYNcpP-3">
          <mxGeometry width="50" height="50" relative="1" as="geometry">
            <mxPoint x="480" y="290" as="sourcePoint" />
            <mxPoint x="530" y="240" as="targetPoint" />
          </mxGeometry>
        </mxCell>
      </root>
    </mxGraphModel>
  </diagram>
</mxfile>
